<?xml version="1.0" encoding="utf-8"?>
<!-- Generator: Adobe Illustrator 19.1.0, SVG Export Plug-In . SVG Version: 6.00 Build 0)  -->
<svg version="1.1" id="Layer_1" xmlns="http://www.w3.org/2000/svg" xmlns:xlink="http://www.w3.org/1999/xlink" x="0px" y="0px"
	 viewBox="-48 176.5 513.5 441.5" style="enable-background:new -48 176.5 513.5 441.5;" xml:space="preserve">
<style type="text/css">
	.st0{fill:#97D3E8;}
	.st1{fill:#030303;}
	.st2{fill:none;}
	.st3{fill:#201F1F;}
	.st4{fill:#9BD9EF;}
	.st5{fill:#7CB9E5;}
	.st6{fill:#9CD9EF;}
	.st7{fill:#F3C9B0;}
	.st8{fill:#C39A85;}
	.st9{fill:#FEFEFE;}
	.st10{fill:#99D5EB;}
	.st11{fill:#98D4E9;}
	.st12{fill:#99D6EB;}
	.st13{fill:#98D4EA;}
	.st14{fill:#95CFE4;}
	.st15{fill:#AC5C51;}
	.st16{fill:#AB5C51;}
	.st17{fill:#FDFCFC;}
	.st18{fill:#FDFBFB;}
</style>
<g id="Layer_5">
</g>
<g id="Layer_4">
</g>
<g id="mainBody">
</g>
<g id="Layer_6">
</g>
<g id="Suckers">
	<path class="st0" d="M146.4,460.9c-0.2,1.8-0.4,3.5-0.6,5.3c-2.1,0.1-4.3-0.1-4.1-2.6C141.8,460.9,144,460.3,146.4,460.9z"/>
	<g>
		<path class="st1" d="M147.3,481.5c0.1-8.4,0.2-17.1,1.1-25.5c-0.5,0.2-0.9,0.5-1.6,0.8l-0.7,4.2l0,0l0,0c-0.4,1.9-0.6,4.5-0.6,5.2
			c0,0,0,0,0,0.1c-0.1,0.6-0.1,11.9-0.1,17.9c0.5,0,1.3-0.3,1.8-0.3C147.3,482.9,147.3,482.4,147.3,481.5z"/>
		<path class="st0" d="M145.7,466.3c0.1-0.7,0.2-3.3,0.6-5.2C142.5,463.1,142.5,463.4,145.7,466.3z"/>
		<path class="st2" d="M205.1,529.5c0-5.2,0-10.3,0-15.5C205.1,519.2,205.1,524.4,205.1,529.5z"/>
		<path class="st2" d="M207,514.1c0.4,0.1,1,0.1,1.7,0c0.1,0,0.2,0,0.3,0h1.9h0.8c0,5.3,0,10.6-0.1,15.8c0.1-22.9,0.1-45.7,0.1-68.6
			c0-1.3,0.4-2.7-0.5-3.9c-1.7-2.9-3.4-3.1-5.7-0.6l0,0l0,0c-1,1.2-0.5,2.6-0.5,3.9c0,17.8,0,35.6,0,53.3h0.9L207,514.1L207,514.1z"
			/>
		<path class="st2" d="M238.7,515.2c1.9,0,3.7,0,5.5,0.4c0.3,0.1,0.6,0.1,0.8,0.2c0-11.5,0.2-22.9,0-34.4
			c-0.1-5.4-1.2-10.8-3.9-15.7c-0.8-1.4-1.4-3-3.3-3.5c0,17.8,0,35.4,0,52.9l0,0C238.1,515.2,238.4,515.2,238.7,515.2z"/>
		<path class="st2" d="M172.6,515.8c1.8-0.2,3.7-0.3,5.5-0.5c0-0.1,0-0.1,0-0.2s0-0.2,0-0.3c0.3,0.1,0.6,0.2,0.9,0.4
			c0-17.8,0-35.7,0-54c-2.1,1.1-3,2.7-3.8,4.2c-1.6,3-2.5,6.3-2.9,9.7c-1.4,13.6-0.5,27.2-0.6,40.8l0,0c0.3-0.1,0.6-0.3,0.9-0.4
			C172.6,515.6,172.6,515.7,172.6,515.8z"/>
		<path class="st3" d="M460.4,367.6c-0.3-0.2-0.7-0.1-1-0.2c-32.7-6.1-65.7-7.9-98.9-6.9c-2.7,0.1-5.4,0-8.2,0
			c4.4-17.1,5.3-34.4,5.4-51.7c0.1-26-8.2-48.7-26.2-67.6c-1.2-1.3-1.6-2.4-1.2-4.1c4.9-18.7,2.8-36.8-3.7-54.7
			c-0.7-1.9-1.8-2.7-3.7-2.7c-5.2-0.3-10.2,0.4-15.2,1.7c-15.7,4-29.6,11.7-43.1,20.4c-1.9,1.3-3.6,1.7-5.9,1.1
			c-36.3-8.2-72.4-7.7-108.5,1.4c-2.1,0.5-3.6,0.2-5.3-1c-11.5-7.7-23.5-14.6-36.6-19.3c-7.6-2.7-15.4-4.7-23.6-4.4
			c-1.6,0.1-3.1,0-3.8,2c-7.2,19.3-9.3,39-2.9,58.9c0.8,2.4,0.4,3.8-1.2,5.6c-8.3,9.5-14.5,20.2-18.2,32.3
			c-6.5,21-4.9,42.1-1.6,63.3c1,6.4,3,12.7,4.8,18.9c-0.5,0-0.8,0-1,0c-1.9,0-3.9-0.1-5.8-0.1c-32.7-0.9-65.3,1-97.6,7
			c-1.2,0.2-3.7-0.3-3.3,1.6c0.4,1.8,2.6,0.4,3.8,0.2c32.4-6,65-7.6,97.9-7c2.6,0,5-0.4,6.5,0.5c1.6,1,2.3,3.4,3,5.9
			c0.7,2.3,1.1,3.3-1.9,3.4c-13.3,0.2-26.5,1.4-39.7,2.8c-22.6,2.5-44.9,6.4-66.8,12.4c-0.8,0.2-2.4-0.1-2,1.5
			c0.4,1.6,1.8,0.5,2.6,0.3c35.2-9.6,71.2-13.8,107.5-15.4c2-0.1,3,0.5,4,2.2c7.3,12.8,17.4,22.8,29.9,30.5
			c14.9,9.1,31.3,14.2,48.3,17.5c6.5,1.3,13.1,2.3,19.6,3.4c2.1-1.3,4.2,0.1,6.3,0.1c25.7-0.1,51.4-0.1,77.1-0.1
			c0.6-0.7,1.5-0.5,2.2-0.6c15.4-1.7,30.5-4.4,45.1-9.6c21.7-7.7,39.4-20.3,49.3-41.9c0.9-1.9,2.2-1.6,3.6-1.5
			c12.1,0.6,24.2,1.2,36.3,2.4c23.6,2.4,47,6.1,69.9,12.2c1.4,0.4,2.9,0.7,4.3,1.1c0.8,0.2,1-0.4,1.2-0.9c0.2-0.6-0.3-0.8-0.7-0.9
			c-0.6-0.2-1.3-0.4-2-0.6c-34.5-9.3-69.8-13.7-105.5-15.1c-5.4-0.2-5.2-0.2-3.8-5.3c0.5-1.7,0.6-3.2,1.5-3.9c0.8-0.5,2.5-0.2,4-0.3
			c35-1.2,69.8,0.6,104.4,7c0.9,0.2,2.5,1.3,2.8-0.4C463.2,367.4,461.2,368.1,460.4,367.6z M314.4,381.2
			c-8.1,17.9-23.5,26.3-41.7,30.5c-14.2,3.3-28.7,4.1-43.2,4.4c-24.2,0.6-48.3,0.8-72.3-3c-11.9-1.9-23.5-5-34.1-10.8
			c-17.2-9.4-26.5-24.2-29.1-43.3c-0.7-4.8-1.1-9.7-0.7-14.6c-0.2-11.2,4.6-20.5,11.1-29.2c10.3-13.9,24.5-19.7,41.5-19.9
			c14.5-0.2,29,1.2,43.4,1.9c12.4,0.6,24.9,0.6,37.4-0.2c15.4-1,30.7-2.5,46.2-1.6c22.3,1.2,43,19.5,47.2,41.6
			c0.4,2.2,0.9,4.4,0.6,6.7C321.3,356.6,319.8,369.3,314.4,381.2z"/>
		<path class="st3" d="M266.4,454.9c-3.1-5.5-6.6-10.8-11.9-14.6c-6.8-4.9-14.6-6.9-22.7-8.3c-6.1-1-12.3-1.2-18.2-1
			c-10.5,0.4-21-0.2-31.5,0.9c-6,0.6-11.9,1.1-17.8,2.2c-2.1,0.4-3.9,2.1-6.3,1.5c-0.4,0.4-0.7,0.8-1.1,1.3
			c-4.2,5.8-6.4,12.4-8.5,19.1c-0.9,8.4-1.3,17-1.4,25.4c0,0.9,0.2,1.6,0,2.5c0.5,11.8,0.4,23.6,0.1,35.4c0.3,5.3,0.5,10.6-0.1,15.9
			c-0.8,7.7-5.4,12.9-12.2,16.2c-1.2,0.6-2.5,1.1-3.7,1.7c-1.9,1-3.2,2.5-3.2,4.8s1.8,2.9,3.4,3.7l0,0c8.2,0.3,16.2-0.5,23.9-3.4
			l0,0l0,0c12-5.4,16.8-15,16.3-27.7c-0.2-4.8,0-9.7,0.1-14.5l0,0l0,0c0.1-13.6-0.8-27.2,0.6-40.8c0.4-3.4,1.3-6.7,2.9-9.7
			c0.8-1.5,1.7-3.1,3.8-4.2c0,18.3,0,36.2,0,54c0,13.4,0.1,26.9,0,40.3c0,6.7-3,11.7-9,14.8c-2.8,4.9-2.5,6.8,1.6,9.6
			c0.2,0,0.5,0,0.7,0.1l0,0l0,0c9,0.2,16.7-3.2,23.7-8.4c6.8-6.4,9.2-14.4,9.1-23.6c0-6.2-0.1-12.4-0.1-18.5c0-5.2,0-10.3,0-15.5
			l0,0l0,0c0-17.8,0-35.6,0-53.3c0-1.3-0.5-2.7,0.5-3.9l0,0l0,0c2.3-2.5,4-2.3,5.7,0.6c0.9,1.2,0.5,2.6,0.5,3.9
			c0,22.9,0,45.7-0.1,68.6c0,6.2-0.1,12.5-0.1,18.7c-0.1,9.2,2.4,16.9,9.3,23c6.1,4.4,12.8,7.4,20.3,8.4c0.9-0.1,1.7-0.1,2.6-0.2
			l0,0l0,0c5.2-2.4,5.9-4.3,3.4-9.4l0,0l0,0c-7.1-3.8-9.1-10.5-9.3-17.7c-0.3-12.5,0-25.1,0-37.6l0,0c0-17.6,0-35.1,0-52.9
			c1.9,0.5,2.5,2.2,3.3,3.5c2.7,4.9,3.8,10.3,3.9,15.7c0.3,11.4,0.1,22.9,0,34.4c0.1,6,0,12,0.2,18c0.2,11.6,5.8,19.6,16.3,24.4
			c6.2,2.2,12.5,3.5,19.1,3.5c2.4,0,4.7-0.3,6.7-1.7c1.3-3.2,0.4-5.8-3.1-7.4c-10.8-5-15.1-13.6-14.8-25.1c0.1-2.9,0.1-5.9,0.2-8.8
			c-0.1-1.2-0.2-2.5-0.2-3.7c0-14.5,0.1-29,0-43.4c0-5.5-0.1-11-1.6-16.4C267,457.4,266.7,455.3,266.4,454.9z"/>
		<path class="st4" d="M284.2,552.6c3.5,1.6,4.3,4.2,3.1,7.4c-0.2,0.5-0.4,1-0.8,1.4c-0.8,1-1.9,1.6-3.1,2.1
			c-8.9,4.1-13.2,11.4-13.7,20.8c-0.4,8.5-0.1,17-0.1,25.5c0.5,0,0.9,0.1,1.4,0c16.6-2.9,33-6.7,48.7-13.2
			c10.1-4.2,19.7-9.2,27.3-17.4c7.9-8.5,8.5-18.6,1.7-27.8c-4.5-6.1-10.6-10.2-17-13.8c-19.3-10.6-40.5-15.5-62-19.1
			c-0.1,2.9-0.1,5.9-0.2,8.8C269.1,539,273.5,547.6,284.2,552.6z"/>
		<path class="st4" d="M147.1,584.4c-0.2-10.1-5.1-17.2-14.1-21.5c-0.3-0.2-0.6-0.3-0.9-0.5c-0.3-0.2-0.5-0.4-0.6-0.7l0,0
			c-1.6-0.8-3.5-1.4-3.4-3.7c0-2.3,1.3-3.8,3.2-4.8c1.2-0.6,2.5-1.1,3.7-1.7c6.9-3.3,11.4-8.5,12.2-16.2c0.6-5.3,0.4-10.6,0.1-15.9
			c-16.3,2.8-32.3,6.7-47.6,13.3c-9.5,4.1-18.6,8.9-25.8,16.7c-7.7,8.3-8.5,17.9-2.1,27.2c2.9,4.2,6.8,7.6,11.1,10.4
			c19.6,12.8,41.7,18.2,64.3,22.2C147.1,600.9,147.2,592.7,147.1,584.4z"/>
		<path class="st3" d="M140.7,459.1c-16.4,5.3-31.7,4.4-45.2-7.5c-4.5-4-7.7-8.9-10.9-13.8c-5.8-9.1-13.4-15.9-23.8-19.3
			c-5.3-1.8-10.8-2.6-16.3-0.5c-3.4,1.3-3.9,3.5-1.5,6.3c2.1,2.4,4.9,4,7.8,5.3c8.1,3.9,14.3,9.9,18.9,17.5c2.1,3.5,4.2,7,6.1,10.6
			c15.5,27.8,42.5,32.7,69.7,26.4c0.2-6.1,0.2-17.3,0.2-17.9c-3.2-3-3.2-3.2,0.6-5.2l0.7-4.3C144.9,457.5,142.8,458.4,140.7,459.1z"
			/>
		<path class="st5" d="M269.8,584.3c0.4-9.5,4.7-16.8,13.7-20.8c1.2-0.5,2.3-1.1,3.1-2.1c0.3-0.4,0.6-0.8,0.8-1.4
			c-2,1.4-4.3,1.7-6.7,1.7c-6.6,0-12.9-1.3-19.1-3.5c-0.1,0.3-0.3,0.5-0.4,0.7c-1.3,1.8-3.6,2-5.3,3.2c-3.3,2.2-5.6,5.3-8.3,8
			c-0.1,0.1-0.3,0.3-0.4,0.4l0,0c2.5,5.1,1.8,7-3.4,9.4l0,0c0.4,0.1,0.7,0.2,0.9,0.3c0.9,0.6,0.6,1.9,0.6,2.9c0,8.8,0,17.6,0,26.3
			c0,1.2-0.6,2.8,1.4,3.3l0,0l0,0c7.7-0.4,15.4-1.6,23-2.9l0,0C269.7,601.3,269.4,592.8,269.8,584.3z"/>
		<path class="st5" d="M171.6,580c-4.1-2.8-4.4-4.6-1.6-9.6c-0.2-0.1-0.3-0.3-0.5-0.4c-2.7-2.2-4.3-5.4-7.3-7.3
			c-2.1-1.3-4.5-2.2-6.4-3.8c-0.2-0.2-0.4-0.4-0.7-0.6l0,0c-7.7,2.9-15.7,3.7-23.9,3.4c0.2,0.3,0.4,0.5,0.6,0.7
			c0.3,0.2,0.6,0.4,0.9,0.5c9.1,4.3,14,11.4,14.1,21.5c0.1,8.2,0,16.5,0,24.7c8,1.9,16.2,2.8,24.4,3.4l0,0c0-10.6,0-21.3,0.1-31.9
			C171.6,580.4,171.6,580.2,171.6,580z"/>
		<path class="st5" d="M239.1,587.2c0.5-2.1,1.2-4.2,1.8-6.4c0.1-0.3,0.2-0.5,0.2-0.8c-7.5-1.1-14.2-4-20.3-8.4
			c-0.1,0.2-0.3,0.5-0.4,0.7c-2.7,4.5-5.3,9-6.6,14.2c-2.2,9.3-1,18.7-1.3,28c8.4,0.3,16.8-0.2,25.2-1.2
			C237.9,604.6,236.9,595.8,239.1,587.2z"/>
		<path class="st5" d="M202.2,614c2.3,0.1,3-0.8,2.8-3c-0.3-4.8-0.6-9.7-0.6-14.5c0-9-2.5-17.1-7.8-24.2c-0.2-0.2-0.3-0.4-0.5-0.6
			c-7.1,5.2-14.8,8.5-23.7,8.4l0,0c1.1,0.1,1.9,0.3,2.6,0.7c1.7,1.1,2.3,3.1,2.9,5.4c1.9,7.7,1,15.5,1.3,23.3c0,1.2,0,2.5,0,3.7l0,0
			c5.1,0.8,10.3,0.8,15.5,0.9l0,0C197.2,614,199.7,613.9,202.2,614z"/>
		<path d="M166.7,427.1c-3.4,2.3-6.3,5.2-8.7,8.5c2.3,0.6,4.4-0.6,6.6-0.9c5.9-1,11.8-1.6,17.8-2.2c10.5-1,21-0.5,31.5-0.9
			c5.9-0.2,12.1-0.1,18.2,1c8.1,1.4,15.8,3.4,22.7,8.3c5.3,3.8,8.8,9,11.9,14.6c0.2,0.4,0.3,1.9,1.1-0.4
			c-2.2-11.6-8.3-20.7-17.7-27.8c-25.7,0-51.4,0-77.1,0.1C170.9,427.4,168.8,425.9,166.7,427.1z"/>
		<path class="st4" d="M245.2,609.4c0-8.8,0-17.6,0-26.3c0-1,0.3-2.2-0.6-2.9c-0.2-0.2-0.5-0.3-0.9-0.3l0,0
			c-0.9,0.1-1.7,0.1-2.6,0.2c-0.1,0.3-0.1,0.5-0.2,0.8c-0.6,2.1-1.3,4.2-1.8,6.4c-2.2,8.6-1.2,17.5-1.3,26.2c2.9-0.4,6,0.4,8.9-0.7
			l0,0C244.6,612.3,245.2,610.6,245.2,609.4z"/>
		<path class="st4" d="M177.8,586.2c-0.6-2.3-1.2-4.4-2.9-5.4c-0.7-0.4-1.5-0.7-2.6-0.7l0,0c-0.2,0-0.5,0-0.7-0.1c0,0.2,0,0.4,0,0.6
			c0,10.6,0,21.3-0.1,31.9l0,0c2.5,0.2,5.1,0.5,7.6,0.7l0,0c0-1.2,0-2.5,0-3.7C178.9,601.7,179.8,593.9,177.8,586.2z"/>
		<path class="st6" d="M47.5,429.4c-0.2,0-0.4,0-0.7-0.1c-1.3,4.7-2.7,9.4-3.9,14.2c-0.5,2,0.1,4.1,2.3,5.2c1.6,0.8,3.2,0.8,4.5-0.3
			c1.7-1.4,2.1-3.4,1.5-5.5C50,438.4,48.7,433.9,47.5,429.4z"/>
		<path class="st7" d="M312.1,322.9c-7.6-10.9-16.9-19.4-30.6-21.7c-9.9-1.7-19.8-1.4-29.8-0.6c-6,0.4-11.9,1.2-17.9,1.5
			c-10.3,0.5-20.5,1.9-30.8,1.4c-11.1-0.6-22.3-1.5-33.4-2.4c-12.8-1.1-25.7-2.1-38.5,0.5c-11.6,2.4-20.1,9.4-27,18.6
			c-5.5,7.2-9,15.3-10.7,24.2c-0.4,4.9,0,9.7,0.7,14.6c2.7,19.2,11.9,34,29.1,43.3c10.7,5.8,22.2,8.9,34.1,10.8
			c24,3.8,48.1,3.6,72.3,3c14.5-0.3,29-1.1,43.2-4.4c18.2-4.3,33.5-12.6,41.7-30.5c5.4-11.9,6.9-24.5,6.3-37.5
			C318.9,336.3,316.5,329.2,312.1,322.9z M161.6,374.4c-9.5,12.4-22.8,12.5-32.3,0c-11-14.4-9.9-41.6,3.3-53.6
			c9.3-8.5,20.5-6.8,27.9,2.2c6.3,7.6,8.8,16.7,8.4,26.1C169.2,358.6,167.2,367.1,161.6,374.4z M207.2,373.8c3.2-0.1,6,2.7,6,6
			c0,3.1-2.6,5.9-5.7,6c-3.2,0.1-6-2.8-6-6C201.6,376.6,204.1,373.9,207.2,373.8z M220.8,395.8c-2.1,5.2-7.4,8.6-13.5,8.6
			c-5.9,0-11-3.4-13.3-8.4c-0.6-1.4-0.9-2.7,0.7-3.5c1.6-0.8,2.2,0.6,2.8,1.7c4.2,8.9,15.9,8.6,19.8-0.1c0.5-1.2,1.3-2.4,2.8-1.5
			C221.5,393.3,221.3,394.5,220.8,395.8z M285.9,377.5c-9,8.9-21.4,7.8-29.1-2.3c-10.7-14.1-10.7-39.1,1-52.5
			c8.9-10.3,21.8-10.2,30.9,1.8c5.7,7.5,7.4,16.3,7.7,26.3C295.9,360.3,293.6,369.9,285.9,377.5z"/>
		<path class="st8" d="M131.1,301.5c12.8-2.6,25.7-1.6,38.5-0.5c11.1,0.9,22.3,1.8,33.4,2.4c10.3,0.5,20.5-0.9,30.8-1.4
			c6-0.3,11.9-1.1,17.9-1.5c9.9-0.7,19.9-1.1,29.8,0.6c13.7,2.3,23,10.8,30.6,21.7c4.4,6.3,6.8,13.4,8.6,20.8
			c0.3-2.3-0.2-4.5-0.6-6.7c-4.2-22.1-24.9-40.4-47.2-41.6c-15.4-0.8-30.8,0.6-46.2,1.6c-12.5,0.8-25,0.8-37.4,0.2
			c-14.5-0.7-28.9-2.1-43.4-1.9c-17,0.2-31.1,6-41.5,19.9c-6.5,8.7-11.3,18-11.1,29.2c1.7-8.9,5.2-17,10.7-24.2
			C111,310.9,119.4,303.9,131.1,301.5z"/>
		<path class="st4" d="M162.3,562.7c3,1.9,4.6,5.1,7.3,7.3c0.2,0.1,0.3,0.3,0.5,0.4c6-3.1,9-8.1,9-14.8c0-13.4,0-26.9,0-40.3
			c-0.3,0-0.6,0.1-0.9,0.1c-1.8,0.2-3.7,0.3-5.5,0.5c-0.3,0-0.6,0.1-0.9,0.1l0,0c0,4.9-0.3,9.7-0.1,14.5
			c0.5,12.8-4.4,22.3-16.3,27.7l0,0c0.2,0.2,0.4,0.4,0.7,0.6C157.8,560.6,160.2,561.4,162.3,562.7z"/>
		<path class="st4" d="M255.8,562.1c1.7-1.2,4.1-1.4,5.3-3.2c0.1-0.2,0.3-0.4,0.4-0.7c-10.5-4.8-16.1-12.8-16.3-24.4
			c-0.1-6-0.1-12-0.2-18c-0.3-0.1-0.6-0.2-0.8-0.2c-1.8-0.4-3.7-0.4-5.5-0.4c-0.3,0-0.6,0-0.9,0l0,0l0,0c0,12.5-0.3,25.1,0,37.6
			c0.2,7.2,2.1,13.9,9.3,17.7l0,0c0.1-0.1,0.3-0.3,0.4-0.4C250.2,567.4,252.6,564.3,255.8,562.1z"/>
		<path class="st9" d="M172.6,515.5c-0.3,0.1-0.6,0.3-0.9,0.4c0.3,0,0.6-0.1,0.9-0.1C172.6,515.7,172.6,515.6,172.6,515.5z"/>
		<path class="st9" d="M178.1,515.1c0,0.1,0,0.1,0,0.2c0.3,0,0.6-0.1,0.9-0.1c-0.3-0.2-0.6-0.3-0.9-0.4
			C178.1,515,178.1,515.1,178.1,515.1z"/>
		<path class="st10" d="M88.5,448.9c-1.7,0.1-2.5,1.2-2.2,2.7c0.4,2.4,1.9,4.1,4.5,4.4c1.7,0.2,2.5-0.9,2.5-2.5
			C93.2,451.4,90.5,448.8,88.5,448.9z"/>
		<path class="st11" d="M100.1,459.3c-1.6-0.2-3,0.3-3.2,2.2c-0.2,1.8,2.4,4,5.3,4.1c1.1,0,2.6-0.6,2.4-2.4
			C104.4,460.7,102.5,459.5,100.1,459.3z"/>
		<path class="st12" d="M114.5,464c-1.6,0-3.5,0.3-3.4,2.4c0.1,2.6,2.2,3.1,4.1,3.3c2-0.1,4-0.4,3.9-2.6
			C118.8,464.7,116.7,464,114.5,464z"/>
		<path class="st12" d="M130.5,464.2c-1.9,0.1-3.9,0.5-3.9,2.9s2.1,2.6,3.9,2.8c2-0.1,4.1-0.5,4.1-2.7
			C134.7,464.8,132.5,464.2,130.5,464.2z"/>
		<path class="st13" d="M79.5,437.5c-1.8,0.1-2.3,1.3-2.1,2.8c0.3,2.3,1.6,3.9,3.8,4.2c1.5-0.1,2.4-1,2.4-2.4
			C83.7,440,81.4,437.5,79.5,437.5z"/>
		<path class="st0" d="M71.1,428.2c-1.4,0.2-2.2,0.9-2,2.3c0.4,2,1.7,3.2,3.8,3.3c1.2,0,2.1-0.6,1.9-1.8
			C74.6,429.7,73.1,428.7,71.1,428.2z"/>
		<path class="st14" d="M62.9,422.5c-1.1-0.1-2.2,0.2-2.1,1.5c0.1,1.7,1.6,2.3,3,2.7c1.2,0,2.3-0.4,2.2-1.6
			C65.9,423.3,64.6,422.6,62.9,422.5z"/>
		<path class="st9" d="M257.8,322.7c-11.7,13.4-11.7,38.4-1,52.5c7.7,10.1,20.1,11.2,29.1,2.3c7.7-7.6,9.9-17.2,10.4-26.8
			c-0.2-10-2-18.7-7.7-26.3C279.7,312.5,266.8,312.4,257.8,322.7z M280.1,367.6c-6.1,7-14.6,6.7-20.3-0.6c-3.9-5-5.4-10.9-5.3-17.2
			c0-6.9,1.6-13.3,6.5-18.4c5.6-5.9,13.3-5.7,18.8,0.3C287.9,340.7,288.1,358.5,280.1,367.6z"/>
		<path class="st9" d="M160.5,323c-7.4-9-18.6-10.7-27.9-2.2c-13.2,12-14.3,39.2-3.3,53.6c9.5,12.4,22.8,12.4,32.3,0
			c5.6-7.3,7.5-15.8,7.3-25.3C169.3,339.7,166.9,330.7,160.5,323z M157.6,367.6c-6.1,6.9-14.3,6.7-20.1-0.4
			c-4.1-5.1-5.6-11-5.5-17.4c0-6.8,1.6-13,6.3-18.2c5.6-6.1,13.4-6,19,0.1C165.4,340.7,165.6,358.6,157.6,367.6z"/>
		<path class="st15" d="M220.1,392.6c-1.6-0.9-2.3,0.3-2.8,1.5c-3.9,8.7-15.6,9-19.8,0.1c-0.5-1.1-1.2-2.4-2.8-1.7
			c-1.6,0.8-1.3,2.1-0.7,3.5c2.2,5.1,7.4,8.4,13.3,8.4c6,0,11.4-3.5,13.5-8.6C221.3,394.5,221.5,393.3,220.1,392.6z"/>
		<path class="st15" d="M207.5,385.8c3.1-0.1,5.7-2.9,5.7-6c0-3.3-2.8-6.1-6-6c-3.1,0.1-5.6,2.8-5.7,6
			C201.5,383,204.4,385.9,207.5,385.8z"/>
		<path class="st16" d="M261,331.5c-4.9,5.1-6.5,11.5-6.5,18.4c0,6.3,1.4,12.1,5.3,17.2c5.7,7.3,14.3,7.5,20.3,0.6
			c8-9.2,7.8-26.9-0.4-35.9C274.3,325.7,266.5,325.6,261,331.5z M265.1,343.6c-2.5-0.1-3.8-1.7-3.7-4.2c0.1-2.4,1.7-3.8,3.9-3.7
			c2.4,0,3.8,1.6,3.9,4.2C269,342.3,267.6,343.8,265.1,343.6z"/>
		<path class="st16" d="M138.3,331.7c-4.7,5.1-6.3,11.4-6.3,18.2c0,6.4,1.4,12.4,5.5,17.4c5.8,7.1,14,7.3,20.1,0.4
			c8-9.1,7.8-27-0.3-35.9C151.7,325.6,143.9,325.5,138.3,331.7z M141,344.2c-2.4,0-4.5-2.1-4.5-4.6s2-4.4,4.5-4.4
			c2.6,0,4.5,1.9,4.6,4.4C145.6,342.1,143.4,344.2,141,344.2z"/>
		<path class="st17" d="M265.3,335.6c-2.3,0-3.8,1.3-3.9,3.7c-0.1,2.5,1.2,4.1,3.7,4.2c2.6,0.1,3.9-1.4,4.2-3.8
			C269.2,337.2,267.8,335.7,265.3,335.6z"/>
		<path class="st18" d="M141,335.2c-2.6,0-4.6,1.9-4.5,4.4c0,2.4,2.1,4.6,4.5,4.6s4.6-2.2,4.6-4.5
			C145.6,337.2,143.6,335.2,141,335.2z"/>
		<path class="st4" d="M213.8,586.5c1.2-5.3,3.8-9.7,6.6-14.2c0.1-0.2,0.3-0.5,0.4-0.7c-6.9-6.1-9.4-13.9-9.3-23
			c0.1-6.2,0.1-12.5,0.1-18.7c0-5.3,0-10.6,0.1-15.8h-0.8H209c-0.1,0-0.2,0-0.3,0c-0.7,0.1-1.3,0.1-1.7,0h-1h-0.9l0,0l0,0
			c0,5.2,0,10.3,0,15.5c0,6.2,0,12.4,0.1,18.5c0.1,9.2-2.4,17.2-9.1,23.6c0.2,0.2,0.3,0.4,0.5,0.6c5.4,7.2,7.8,15.2,7.8,24.2
			c0,4.8,0.3,9.7,0.6,14.5c0.1,2.2-0.5,3.1-2.8,3c-2.5-0.1-5,0-7.5,0l0,0c5.9,1.3,11.9,0.2,17.8,0.5
			C212.8,605.2,211.6,595.8,213.8,586.5z"/>
	</g>
</g>
</svg>
