<?xml version="1.0" encoding="utf-8"?>
<!-- Generator: Adobe Illustrator 19.1.0, SVG Export Plug-In . SVG Version: 6.00 Build 0)  -->
<svg version="1.1" xmlns="http://www.w3.org/2000/svg" xmlns:xlink="http://www.w3.org/1999/xlink" x="0px" y="0px"
	 viewBox="0 0 506.8 434.5" style="enable-background:new 0 0 506.8 434.5;" xml:space="preserve">
<style type="text/css">
	.st0{fill:#201F1F;}
	.st1{fill:#9BD9EF;}
	.st2{fill:#7CB9E5;}
	.st3{fill:#9CD9EF;}
	.st4{fill:#030303;}
	.st5{fill:#F3C9B0;}
	.st6{fill:#C39A85;}
	.st7{fill:#FEFEFE;}
	.st8{fill:#FCFCFC;}
	.st9{fill:#99D5EB;}
	.st10{fill:#98D4E9;}
	.st11{fill:#99D6EB;}
	.st12{fill:#98D4EA;}
	.st13{fill:#97D3E8;}
	.st14{fill:#95CFE4;}
	.st15{fill:#AC5C51;}
	.st16{fill:#AB5C51;}
	.st17{fill:#FDFCFC;}
	.st18{fill:#FDFBFB;}
</style>
<g id="Layer_5">
</g>
<g id="Layer_4">
</g>
<g id="mainBody">
</g>
<g id="Layer_6">
</g>
<g id="Suckers">
	<g>
		<path class="st0" d="M212.7,247.8c-6.5-1.1-13.1-2.1-19.6-3.4c-17-3.3-33.4-8.3-48.3-17.5c-12.5-7.7-22.7-17.7-29.9-30.5
			c-1-1.7-2-2.3-4-2.2c-36.3,1.6-72.3,5.8-107.5,15.4c-0.8,0.2-2.1,1.3-2.6-0.3c-0.4-1.6,1.2-1.3,2-1.5c21.9-6,44.2-9.9,66.8-12.4
			c13.2-1.4,26.4-2.6,39.7-2.8c3.1-0.1,2.6-1,1.9-3.4c-1.4-5-4.3-6.3-9.5-6.4c-32.9-0.6-65.5,1-97.9,7c-1.2,0.2-3.4,1.6-3.8-0.2
			c-0.4-2,2.1-1.4,3.3-1.6c32.3-6,64.8-7.9,97.6-7c1.9,0.1,3.9,0.1,5.8,0.1c0.2,0,0.4-0.1,0.9-0.2c-1.8-6.2-3.7-12.3-4.7-18.7
			c-3.2-21.2-4.9-42.4,1.6-63.3c3.8-12.1,9.9-22.8,18.2-32.3c1.6-1.8,2-3.2,1.2-5.6c-6.3-20-4.3-39.6,2.9-58.9c0.8-2,2.3-2,3.8-2
			c8.2-0.4,16,1.6,23.6,4.4c13.1,4.7,25.1,11.5,36.6,19.3c1.7,1.1,3.2,1.5,5.3,1c36-9.1,72.2-9.6,108.5-1.4c2.4,0.5,4,0.1,5.9-1.1
			c13.4-8.7,27.4-16.4,43.1-20.4c5-1.3,10-2,15.2-1.7c1.9,0.1,3,0.8,3.7,2.7c6.5,17.9,8.7,36.1,3.7,54.7c-0.5,1.8-0.1,2.8,1.2,4.1
			c18,18.9,26.3,41.6,26.2,67.6c-0.1,17.4-1,34.7-5.4,51.7c2.8,0,5.5,0.1,8.2,0c33.2-0.9,66.2,0.9,98.9,6.9c0.3,0.1,0.7,0,1,0.2
			c0.8,0.5,2.8-0.3,2.5,1.5c-0.3,1.8-1.9,0.6-2.8,0.4c-34.5-6.3-69.3-8.2-104.4-7c-3.3,0.1-4.7,1.1-5.5,4.2
			c-1.4,5.2-1.6,5.1,3.8,5.3c35.7,1.4,70.9,5.8,105.5,15.1c0.7,0.2,1.3,0.4,2,0.6c0.4,0.1,0.9,0.3,0.7,0.9c-0.2,0.5-0.4,1.1-1.2,0.9
			c-1.4-0.4-2.9-0.7-4.3-1.1c-22.9-6.1-46.3-9.9-69.9-12.2c-12.1-1.2-24.2-1.9-36.3-2.4c-1.4-0.1-2.8-0.4-3.6,1.5
			c-9.9,21.7-27.5,34.2-49.3,41.9c-14.6,5.2-29.7,7.9-45.1,9.6c-0.8,0.1-1.6-0.1-2.2,0.6c-1.2,1.3-2.9,1.2-4.4,1.2
			c-23.9,0-47.8,0.1-71.6,0C217.5,248.9,215,249,212.7,247.8z"/>
		<path class="st0" d="M194.5,276.5c2.1-6.7,4.3-13.3,8.5-19.1c0.3-0.4,0.7-0.9,1.1-1.3c6.1-3.4,13-3.6,19.7-4.4
			c8.6-1,17.2-0.3,25.8-0.8c9.5-0.6,19-0.1,28.4,0.9c10.8,1.2,20.7,4.8,28.4,13c3,3.2,4.9,7.2,7.4,10.8c1.6,5.4,1.6,10.9,1.6,16.4
			c0.1,14.5,0,29,0,43.4c0,1.2,0.1,2.5,0.2,3.7c1.1,1.1,1,2.5,1,3.8c0,3-0.1,6.1,0,9.1c0.4,8,3.9,14.2,10.9,18.4
			c1.6,1,3.5,1.7,4.9,3c2.6,2.4,2.9,4.8,1.1,7.7c-3.7,2.9-8,1.9-12.1,1.6c-4.8-0.3-9.6-1.2-14.1-3.4c-11.5-4.7-16.8-13.6-17.1-25.7
			c-0.1-5.9,0-11.8,0-17.7c-0.2-10.3,0-20.6-0.1-30.9c0-5.2-0.8-10.4-2.6-15.3c-0.5-1.4-0.9-3-2.8-4.3c-0.2,16.9,0,33.5-0.1,50
			c0.1,11.8,0,23.6,0,35.3c0,7.7,1.9,14.6,8.6,19.4c3.3,5.3,2.3,8.4-3.4,10.8c-0.9,0.3-1.8,0.3-2.8,0.3c-8.1-0.9-15.1-4.2-21.5-9.1
			c-6.1-5.6-9-12.4-8.9-20.8c0.2-29.1,0.3-58.2,0.2-87.3c0-1.7,0.1-3.4-0.2-5.1c-1.6-3-2.4-3.1-4.5-0.5c-0.3,1.6-0.2,3.2-0.2,4.8
			c-0.1,29.3,0.1,58.7,0.1,88c0,8.3-2.9,15.2-8.9,20.9c-7.3,5.5-15.2,9.4-24.7,9c-0.4,0-0.8-0.1-1.1-0.2c-4.9-3.1-5.3-5.9-1.4-11.1
			c6.7-4.1,8.3-10.4,8.2-17.8c-0.2-12.2-0.1-24.4,0-36.6c-0.2-16.8,0-33.7-0.1-50.8c-1.9,0.8-2.3,2.3-2.7,3.6
			c-1.8,4.9-2.6,10.1-2.6,15.3c-0.1,10.7,0.1,21.5-0.1,32.2c0,6.1,0.1,12.3-0.1,18.4c-0.4,11.9-5.9,20.4-17,25.2
			c-7.7,3.1-15.6,4-23.8,3.3c-2.2-0.6-4.1-1.6-4.3-4.1c-0.3-2.7,1.2-4.5,3.4-5.8c1.9-1.1,3.9-1.9,5.7-3c6.4-3.8,9.7-9.3,9.7-16.8
			c0-3.2,0-6.3,0-9.5c0-1.3-0.1-2.8,1-3.8c0.3-11.8,0.4-23.6-0.1-35.4c-0.5-8.8-0.8-17.6,0.6-26.4
			C193.8,277.4,194.1,277,194.5,276.5z"/>
		<path class="st1" d="M333.3,380.5c1.3-3.2,0.4-5.8-3.1-7.4c-10.8-5-15.1-13.6-14.8-25.1c0.1-2.9,0.1-5.9,0.2-8.8
			c21.5,3.6,42.6,8.5,62,19.1c6.5,3.5,12.5,7.7,17,13.8c6.8,9.2,6.2,19.2-1.7,27.8c-7.6,8.2-17.2,13.2-27.3,17.4
			c-15.6,6.5-32,10.3-48.7,13.2c-0.4,0.1-0.9,0-1.4,0c-0.9-1-0.9-2.3-0.9-3.5c0-7.6-0.2-15.1,0-22.7c0.2-9.2,6.7-18,15.3-21.2
			C331.4,382.3,332.4,381.5,333.3,380.5z"/>
		<path class="st1" d="M193.2,339.9c0.3,5.3,0.5,10.6-0.1,15.9c-0.8,7.7-5.4,12.9-12.2,16.2c-1.2,0.6-2.5,1.1-3.7,1.7
			c-1.9,1-3.2,2.5-3.2,4.8c0,2.3,1.8,2.9,3.4,3.7c10.3,3.4,16.6,12,16.6,23c0,6.8,0,13.6,0,20.4c0,1.4,0.3,3-0.9,4.2
			c-22.6-3.9-44.7-9.4-64.3-22.2c-4.3-2.8-8.1-6.2-11.1-10.4c-6.5-9.3-5.7-18.9,2.1-27.2c7.2-7.8,16.3-12.6,25.8-16.7
			C160.8,346.6,176.8,342.6,193.2,339.9z"/>
		<path class="st0" d="M191.7,304.4c-27.2,6.3-54.3,1.4-69.7-26.4c-2-3.6-4-7.1-6.1-10.6c-4.6-7.6-10.8-13.6-18.9-17.5
			c-2.9-1.4-5.6-2.9-7.8-5.3c-2.4-2.7-1.9-4.9,1.5-6.3c5.5-2.1,10.9-1.3,16.3,0.5c10.3,3.4,18,10.3,23.8,19.3
			c3.2,5,6.4,9.9,10.9,13.8c13.5,12,28.8,12.9,45.2,7.5c2.1-0.7,4.2-1.6,6.3-2.4c1.2,1.4,0.4,2.7-0.2,4c-4.5,2.4-4.5,2.4-0.7,5.8
			c0.2,0.1,0.2,0.4,0.3,0.6c0.6,4.8,0.2,9.6,0.2,14.4C192.7,302.9,192.3,303.7,191.7,304.4z"/>
		<path class="st2" d="M333.3,380.5c-0.6,1.9-2.2,2.7-3.9,3.5c-8.9,4.1-13.2,11.4-13.7,20.8c-0.4,8.5-0.1,17-0.1,25.5
			c-7.6,1.3-15.3,2.5-23,2.9c-2.8,0.3-2.4-1.9-2.4-3.4c-0.2-5.2,0-10.4-0.1-15.6c0-4.6,0.2-9.3-0.4-13.9c5.2-2.4,5.9-4.3,3.4-9.4
			c3-6.2,8.6-9.4,14.4-12.3c6.2,2.2,12.5,3.5,19.1,3.5C329,382.2,331.3,381.9,333.3,380.5z"/>
		<path class="st2" d="M193.1,429.6c0-8.2,0.1-16.5,0-24.7c-0.2-10.1-5.1-17.2-14.1-21.5c-0.6-0.3-1.2-0.6-1.5-1.3
			c8.2,0.3,16.2-0.5,23.9-3.4c6.3,2.4,11.5,6.1,14.8,12.2c-2.8,4.9-2.5,6.8,1.6,9.6c1.1,1.2,1.1,2.7,1.1,4.1c0,8.1,0,16.2,0,24.3
			c0,1.5,0,3-1.1,4.1C209.3,432.4,201.2,431.5,193.1,429.6z"/>
		<path class="st1" d="M257.2,277.9c0.9,1.2,0.5,2.6,0.5,3.9c0,29.1,0,58.2-0.3,87.2c-0.1,9.2,2.4,16.9,9.3,23
			c0.4,1.6-0.5,2.8-1.3,4c-4.1,6.4-5.8,13.4-6,20.9c-0.1,4.6,0,9.3,0,13.9c0,1.4,0.2,3-0.9,4.2c-5.9-0.3-11.9,0.8-17.8-0.5
			c1.8-1.7,4.1-1,6.2-1c2.1-0.1,3.4-0.7,3.1-2.9c-0.8-7.7,0-15.6-1.7-23.3c-0.9-4.1-2.5-8-4.8-11.5c-0.7-1.1-1.8-2.1-1.4-3.7
			c6.8-6.4,9.2-14.4,9.1-23.6c-0.2-29.1-0.1-58.2-0.1-87.3c0-1.3-0.5-2.7,0.5-3.9c1.6,1.6,1.1,3.6,1.1,5.5c0,15.3,0,30.6,0.1,45.9
			c0,1.5-0.8,4.1,1.4,4.2c2.6,0.1,1.8-2.7,1.8-4.3c0.1-15.1,0-30.1,0.1-45.2C256.1,281.5,255.6,279.4,257.2,277.9z"/>
		<path class="st2" d="M258.5,435.1c0.3-9.3-0.9-18.7,1.3-28c1.3-5.5,4.1-10.2,7-14.9c6.1,4.4,12.8,7.4,20.3,8.4
			c0.6,0.8,0.5,1.7,0.2,2.6c-2.8,8.3-2.7,16.9-2.6,25.5c0,1.8,0.3,3.7-1,5.2C275.3,434.8,266.9,435.4,258.5,435.1z"/>
		<path class="st2" d="M242,392.1c5.7,7.3,8.3,15.6,8.3,24.9c0,4.8,0.3,9.7,0.6,14.5c0.1,2.2-0.5,3.1-2.8,3c-2.5-0.1-5,0-7.5,0
			c-5.2,0-10.4-0.1-15.5-0.9c-1.3-1.4-1-3.1-1-4.8c-0.2-5.6,0.4-11.3-0.4-16.9c-0.6-4.4-1.1-8.8-5.4-11.5
			C227.3,400.7,235,397.3,242,392.1z"/>
		<path d="M313.7,275.6c-0.8,2.3-1.1,0.2-1.3-0.2c-3.1-5.5-6.6-10.8-11.9-14.6c-6.8-4.9-14.6-6.9-22.7-8.3c-6.1-1-12.3-1.2-18.2-1
			c-10.5,0.4-21-0.2-31.5,0.9c-6,0.6-11.9,1.1-17.8,2.2c-2.1,0.4-3.9,2.1-6.3,1.5c2.4-3.3,5.3-6.1,8.7-8.3c2.1-1.3,4.2,0.1,6.3,0.1
			c25.7-0.1,51.4-0.1,77.1-0.1C305.5,254.9,311.6,264,313.7,275.6z"/>
		<path class="st1" d="M283.7,433.9c0.2-8.8-0.9-17.6,1.3-26.2c0.6-2.4,1.4-4.7,2.1-7.1c0.9-0.1,1.7-0.1,2.6-0.2
			c2,0.4,1.5,2,1.5,3.2c0,8.8,0,17.6,0,26.3c0,1.2-0.6,2.8,1.4,3.3C289.7,434.3,286.7,433.5,283.7,433.9z"/>
		<path class="st1" d="M218.3,400.5c3.9,0.2,4.7,3,5.5,6.2c1.9,7.7,1,15.5,1.3,23.3c0,1.2,0,2.5,0,3.7c-2.5-0.2-5.1-0.5-7.6-0.7
			c0-10.8,0-21.7,0.1-32.5C217.8,400.5,218.1,400.5,218.3,400.5z"/>
		<path class="st3" d="M93.5,249.8c1.2,4.5,2.4,9,3.7,13.5c0.6,2.2,0.2,4.1-1.5,5.5c-1.3,1.1-2.9,1.1-4.5,0.3
			c-2.2-1.1-2.8-3.1-2.3-5.2c1.1-4.8,2.6-9.5,3.9-14.2C93,249.8,93.3,249.8,93.5,249.8z"/>
		<path class="st4" d="M192.3,281.4c0.2-1.4,0.5-2.8,0.7-4.3c0.2-0.8,0.9-0.6,1.4-0.6c-0.9,8.4-0.6,16.9-0.7,25.3
			c0,0.9-0.4,1.7-0.6,2.6c-0.5,0-0.9,0-1.4,0c0-5.9,0-11.8,0-17.8C190.4,284.7,191,283,192.3,281.4z"/>
		<path class="st5" d="M366.7,164.1c0.6,13-0.9,25.6-6.3,37.5c-8.1,17.9-23.5,26.3-41.7,30.5c-14.2,3.3-28.7,4.1-43.2,4.4
			c-24.2,0.6-48.3,0.8-72.3-3c-11.9-1.9-23.5-5-34.1-10.8c-17.2-9.4-26.5-24.2-29.1-43.3c-0.7-4.8-1.1-9.7-0.7-14.6
			c1.5-15.3,9.5-26.8,21.1-36.2c7.8-6.4,17.3-8.4,27-8.9c12.7-0.6,25.3,0.6,38,1.7c16.1,1.4,32.3,2,48.5,0.5
			c14.9-1.4,29.8-3,44.8-2.3c12,0.6,22.8,4.1,31.4,12.7C358.9,141.1,365.5,151.3,366.7,164.1z"/>
		<path class="st6" d="M366.7,164.1c-1.8-7.4-4.2-14.5-8.6-20.8c-7.6-10.9-16.9-19.4-30.6-21.7c-9.9-1.7-19.8-1.4-29.8-0.6
			c-6,0.4-11.9,1.2-17.9,1.5c-10.3,0.5-20.5,1.9-30.8,1.4c-11.1-0.6-22.3-1.5-33.4-2.4c-12.8-1.1-25.7-2.1-38.5,0.5
			c-11.6,2.4-20.1,9.4-27,18.6c-5.5,7.2-9,15.3-10.7,24.2c-0.2-11.2,4.6-20.5,11.1-29.2c10.3-13.9,24.5-19.7,41.5-19.9
			c14.5-0.2,29,1.2,43.4,1.9c12.4,0.6,24.9,0.6,37.4-0.2c15.4-1,30.7-2.5,46.2-1.6c22.3,1.2,43,19.5,47.2,41.6
			C366.5,159.7,367,161.9,366.7,164.1z"/>
		<path class="st1" d="M216.1,390.9c-3-2.1-4.6-5.6-7.8-7.7c-2.3-1.5-5.1-2.3-7-4.5c12-5.4,16.8-15,16.3-27.7
			c-0.2-4.8,0-9.7,0.1-14.5c2.3-1.2,4.7-2,7.3-0.7c0,13.4,0.1,26.9,0,40.3C225,382.8,222,387.8,216.1,390.9z"/>
		<path class="st1" d="M307.5,378.7c-1.1,2.5-3.8,2.6-5.7,3.9c-3.4,2.3-5.8,5.6-8.7,8.4c-7.1-3.8-9.1-10.5-9.3-17.7
			c-0.3-12.5,0-25.1,0-37.6c2.6-1.4,5-1.4,7.3,0.6c0.1,6,0,12,0.2,18C291.4,365.9,297,373.9,307.5,378.7z"/>
		<path class="st7" d="M225,335.8c-2.4,0.2-4.9,0.4-7.3,0.7c0.1-13.6-0.8-27.2,0.6-40.8c0.4-3.4,1.3-6.7,2.9-9.7
			c0.8-1.5,1.7-3.1,3.8-4.2C225,300.1,225,317.9,225,335.8z"/>
		<path class="st7" d="M291,336.3c-2.4-0.7-4.8-0.6-7.3-0.6c0-17.6,0-35.1,0-52.9c1.9,0.5,2.5,2.2,3.3,3.5
			c2.7,4.9,3.8,10.3,3.9,15.7C291.2,313.4,291,324.9,291,336.3z"/>
		<path class="st8" d="M257.2,277.9c0,17.8-0.1,35.5-0.1,53.3c0,1.7,0.3,3.2-2.4,3.4c-2.7,0.3-3.1-0.5-3.1-3c0.1-18.1,0-36.2,0-54.3
			C253.8,274.8,255.5,275,257.2,277.9z"/>
		<path class="st9" d="M134.4,269.4c2.1-0.1,4.7,2.5,4.7,4.6c0,1.6-0.8,2.7-2.5,2.5c-2.6-0.3-4-2-4.5-4.4
			C131.9,270.5,132.7,269.5,134.4,269.4z"/>
		<path class="st10" d="M148.2,286c-2.9-0.1-5.5-2.3-5.3-4.1c0.2-1.9,1.6-2.3,3.2-2.2c2.4,0.2,4.2,1.4,4.5,3.9
			C150.8,285.4,149.3,286.1,148.2,286z"/>
		<path class="st11" d="M161.1,290.2c-1.9-0.3-4.1-0.7-4.1-3.3c0-2.1,1.8-2.4,3.4-2.4c2.2,0,4.3,0.7,4.5,3.1
			C165.1,289.8,163.1,290.1,161.1,290.2z"/>
		<path class="st11" d="M176.4,290.4c-1.8-0.2-3.8-0.4-3.9-2.8c0-2.3,2-2.8,3.9-2.9c2.1-0.1,4.2,0.6,4.1,3
			C180.6,289.9,178.4,290.2,176.4,290.4z"/>
		<path class="st12" d="M127.2,265c-2.2-0.4-3.5-1.9-3.8-4.2c-0.2-1.5,0.3-2.7,2.1-2.8c1.9-0.1,4.2,2.5,4.1,4.6
			C129.6,264,128.7,265,127.2,265z"/>
		<path class="st13" d="M117.1,248.7c2,0.5,3.5,1.5,3.8,3.7c0.1,1.3-0.8,1.9-1.9,1.8c-2.1-0.1-3.4-1.3-3.8-3.3
			C114.8,249.6,115.7,248.9,117.1,248.7z"/>
		<path class="st13" d="M192.3,281.4c-0.2,1.8-0.4,3.5-0.6,5.3c-2.1,0.1-4.3-0.1-4.1-2.6C187.7,281.3,189.9,280.8,192.3,281.4z"/>
		<path class="st14" d="M109.8,247.2c-1.4-0.3-2.9-0.9-3-2.7c-0.1-1.3,1.1-1.6,2.1-1.5c1.6,0.1,2.9,0.8,3,2.6
			C112,246.8,110.9,247.2,109.8,247.2z"/>
		<path class="st7" d="M342.3,171.2c-0.5,9.6-2.7,19.2-10.4,26.8c-9,8.9-21.4,7.8-29.1-2.3c-10.7-14.1-10.7-39.1,1-52.5
			c8.9-10.3,21.8-10.2,30.9,1.8C340.4,152.5,342.1,161.3,342.3,171.2z"/>
		<path class="st7" d="M215,169.6c0.2,9.5-1.8,18-7.3,25.3c-9.5,12.4-22.8,12.5-32.3,0c-11-14.4-9.9-41.6,3.3-53.6
			c9.3-8.5,20.5-6.8,27.9,2.2C212.8,151.1,215.3,160.2,215,169.6z"/>
		<path class="st15" d="M253.3,224.9c-5.9,0-11-3.4-13.3-8.4c-0.6-1.4-0.9-2.7,0.7-3.5c1.6-0.8,2.2,0.6,2.8,1.7
			c4.2,8.9,15.9,8.6,19.8-0.1c0.5-1.2,1.3-2.4,2.8-1.5c1.4,0.8,1.2,1.9,0.7,3.2C264.7,221.4,259.3,224.9,253.3,224.9z"/>
		<path class="st15" d="M259.2,200.3c0,3.1-2.6,5.9-5.7,6c-3.2,0.1-6-2.8-6-6c0-3.2,2.6-5.9,5.7-6
			C256.4,194.2,259.2,197,259.2,200.3z"/>
		<path class="st16" d="M300.4,170.4c0-6.9,1.6-13.3,6.5-18.4c5.6-5.9,13.3-5.7,18.8,0.3c8.2,9,8.4,26.7,0.4,35.9
			c-6.1,7-14.6,6.7-20.3-0.6C301.8,182.5,300.4,176.6,300.4,170.4z"/>
		<path class="st16" d="M177.9,170.3c0-6.8,1.6-13,6.3-18.2c5.6-6.1,13.4-6,19,0.1c8.1,8.9,8.3,26.8,0.3,35.9
			c-6.1,6.9-14.3,6.7-20.1-0.4C179.4,182.7,177.9,176.7,177.9,170.3z"/>
		<path class="st17" d="M315.2,160.4c-0.3,2.4-1.6,3.9-4.2,3.8c-2.5-0.1-3.8-1.7-3.7-4.2c0.1-2.4,1.7-3.8,3.9-3.7
			C313.7,156.2,315.1,157.7,315.2,160.4z"/>
		<path class="st18" d="M187,164.7c-2.4,0-4.5-2.1-4.5-4.6c0-2.5,2-4.4,4.5-4.4c2.6,0,4.5,1.9,4.6,4.4
			C191.5,162.6,189.4,164.7,187,164.7z"/>
	</g>
</g>
</svg>
